<svg id="Layer_3" data-name="Layer 3" xmlns="http://www.w3.org/2000/svg" viewBox="0 0 205.55 162.46"><defs><style>.cls-1{fill:#ffff9c;opacity:0.51;}</style></defs><polygon class="cls-1" points="66.38 0 91.42 8.15 114.13 18.05 131.02 27.95 143.83 36.1 158.38 45.42 170.03 53.57 181.09 62.31 190.99 71.62 198.56 79.77 202.06 86.76 205.55 98.99 205.55 110.05 205.55 119.95 202.06 132.76 199.73 143.25 193.32 150.23 182.84 157.22 172.36 159.55 165.37 162.46 156.06 162.46 148.49 162.46 143.25 162.46 132.76 159.55 117.04 152.56 103.65 146.74 90.84 140.33 79.77 135.09 69.29 128.69 57.06 122.86 37.85 114.71 25.04 108.31 12.81 101.9 4.66 97.24 0 89.09 0 81.23 1.31 69.72 2.38 61.36 4 53.81 5.89 44.64 7.78 35.2 11.82 24.95 16.14 17.94 21.26 13.9 28 10.39 35.01 7.15 43.91 4.19 52.54 2.3 59.93 1.07 66.38 0"/></svg>