<svg id="Layer_4" data-name="Layer 4" xmlns="http://www.w3.org/2000/svg" viewBox="0 0 239.46 249.71"><defs><style>.cls-1{fill:#ffff9c;opacity:0.5;}</style></defs><polygon class="cls-1" points="49.89 216.27 43.95 207.64 37.48 198.47 32.09 190.11 27.24 182.29 23.73 176.63 20.23 170.43 16.18 163.96 12.4 158.83 7.55 151.01 4.32 143.73 1.62 135.1 0 127.01 0 120.81 0 115.15 2.43 110.56 4.32 106.25 6.74 102.2 6.47 98.16 5.66 93.3 6.47 89.26 7.82 86.56 10.79 83.33 14.29 81.71 17.8 80.09 22.11 80.09 24.94 82.52 28.85 85.21 32.09 86.29 36.13 85.75 40.18 84.67 44.49 81.98 48.27 78.74 53.66 74.43 57.44 71.46 61.88 67.85 66.07 64.45 71.19 60.4 76.05 57.17 80.09 53.3 83.33 50.16 87.37 46.92 95.19 42.34 100.85 39.64 105.44 36.94 108.4 34.52 113.53 31.55 116.76 28.85 116.76 22.92 118.38 14.56 120.54 10.79 123.24 7.55 125.93 4.58 128.63 2.97 131.87 1.35 135.1 0 138.61 0 141.57 0 145.08 4.04 147.78 7.01 150.47 8.63 153.44 9.71 158.02 9.17 162.34 9.44 166.65 11.06 170.43 13.75 175.55 16.99 180.67 20.76 184.18 25.62 187.15 29.66 190.38 35.6 194.16 41.26 197.66 46.38 200.9 53.3 204.94 59.87 208.18 69.3 211.42 78.2 214.65 84.94 218.7 92.76 222.47 100.85 225.71 108.14 229.48 118.11 237.03 134.02 239.46 141.03 239.46 148.04 236.49 152.09 231.91 156.67 226.52 159.37 214.11 165.57 208.99 166.11 203.33 166.38 197.93 164.49 193.08 160.72 186.34 155.33 181.75 150.74 175.28 144.94 168.27 140.22 163.15 136.45 159.37 132.67 153.17 127.82 148.04 123.51 142.65 121.62 137.53 122.43 130.38 124.85 125.93 127.82 119.73 133.75 115.69 137.53 107.86 143.46 101.93 148.31 96 154.25 90.61 159.37 88.45 163.69 89.8 168.27 91.15 174.74 93.84 180.4 96 187.15 97.89 192.54 99.51 197.66 101.12 201.98 102.2 206.02 103.82 211.42 105.44 216.27 106.79 221.66 107.86 227.06 108.4 232.72 108.4 236.76 105.17 240.81 101.12 245.66 93.03 249.71 88.72 249.71 84.67 249.71 81.71 249.71 77.39 247.28 73.08 244.04 69.3 240 63.91 233.8 60.4 229.21 56.9 225.17 53.12 221.12 49.89 216.27"/></svg>