<svg id="Layer_8" data-name="Layer 8" xmlns="http://www.w3.org/2000/svg" viewBox="0 0 222.74 285.66"><defs><style>.cls-1{fill:#ffff9c;opacity:0.55;}</style></defs><path class="cls-1" d="M502.83,700.76V691.6l.64-8.81v-7.55l.64-6.84,1.09-7.19,1.46-4.85,2.37-4,2.19-4.85,2.92-5.21,2.92-5.22,2.92-4.49,2.92-4.14,3.28-4.85,3.83-4.85L533.3,615l4.19-3.59,4.75-4.68,4.56-2.87,7.11-3.06,7.66-3.42,5.29-.9L564.67,594l-3.28-1.26-3.65-2.34a41.86,41.86,0,0,0-2.92-5.75l-4-4a28.07,28.07,0,0,0-4.2-2c-1.73.54,4.38,0,4.38,0h6.39a9,9,0,0,0,4.74-1.08h3.28c2.19-.63,4.93-1.26,4.93-1.26l3.1-.9,3.83-2.16,4.38-1.79,2.74-2.52,4-3.06,1.46-2.69,1.28-2.34a18.63,18.63,0,0,1,3.64-2.34,10.63,10.63,0,0,1,3.29,0l1.82-1.08,2-3.05,2.19-4.5,2.37-4.13,2.55-3.06,4.2-5.21,4.56-5.4,3.65-4,3.83-4.14,3.1-3.23,2.74-2.16,2.92-1.44h3.28a39.17,39.17,0,0,1,3.1,3.78c1.09,2.25,0,3.59,0,3.59-.64,2.79-4.56,8.09-4.56,8.09l-2.19,3.6-2.19,2.88-3.65,6.47-3.28,4.49L622,553.53c.54,2.16,3.1,2,3.1,2l4-2.34,3.83-2.34,2.74-2,1.82-.89,3.41.53,2.43,1.62,2.19,2.16a36.26,36.26,0,0,0,5.65,2.88h2.56l4.19-.36,3.1-1.08a27.77,27.77,0,0,0,6-3.24l3.11-1.62,3.64-2.69,2.56-1.8,2-1.8,1.46-2.16,1.1-2.15v5.57l-1.46,3.78-.91,2.69c-.91,3.33-.55,4.5-.55,4.5l.91,4.49.18,3.06L676.32,565l-4.38,3.78L669,573.3l-2,3.6L664.28,580l-2.37,1.43a25.53,25.53,0,0,0-5.66,2.16c-2.37,2.79-2.37,4.32-2.37,4.32l4.2-.18,3.28.53,2.37.72,3.83,1.08,3.65,1.08,3.47,2.52,4,2.87,4.38,3.24,4.38,2.7,5.65,4.31,3.83,2.7,4.2,2.69,3.46,4.14,2.56,3.24,3.1,5,2,5,1.64,5,2,4.85,1.65,3.42,1.46,5.93,1.09,4.13,1.28,4,1.09,4.31v4.5l1.28,5.39v8.63l1.82,4.85v7.73l-.91,4.32-.18,4.13-.73,5.22-.73,3.95-.55,5L721,719.28l-1.46,4.85-1.27,4L717,731.33l-1.83,3.59-1.45,3.24-1.1,3.59-3.28,4.32-2,3.59-2.55,4.5-4.38,6.47-2.92,5.21L693.83,772l-3.47,4.67-3.46,3.77-6.93,4-4.75,3.42-5.65,3.59-5.47,2.52-6.21,3.59-4.74,1.8-7.3,1.8-7.29.9H626.33l-6.93.9H595.5l-6.93-1.26-6.38-.9-6.75-.72-4.93-1.62-6-3.41-4.92-2.88-4.2-3.42-5.29-4.85-4.38-2.88-4.19-3.05-4.2-4.5-5.47-6.47L528.92,763,524,756.31,521.44,752l-3.1-4.67-2.92-5-2.37-3.77-2.19-4.86-2.37-5-1.65-4.85-1.64-5.22-.36-3.95-1.13-7.76Z" transform="translate(-502.83 -517.21)"/></svg>