<svg id="Layer_5" data-name="Layer 5" xmlns="http://www.w3.org/2000/svg" viewBox="0 0 119.97 239.53"><defs><style>.cls-1{fill:#ffff9c;opacity:0.5;}</style></defs><path class="cls-1" d="M720.65,668.09H737l3.51-.27h6.34l5-.34h3.7l4.79-.94,1.68-.47,1-2.09.27-3.37-.07-3.31.47-3.43v-5.33l.34-3.44.34-5.12.2-5.53.2-4.25v-2.63l.54-8.15v-3l.2-2.36v-6l.14-2.54.13-1.55.07-5.39-.47-3.1-.2-3.11-.41-2.35-.61-2.23-.06-1.21-.54-1.76-1.22-1.82-2.49-1.82-1.08-1.21-3.3-1.89-2.09-.06-2.29-.41-1.69-.07-1.68.34.6-1.89,1.22-2.15.87-2.16.68-3.17,1.21-3.71.81-3.23.81-3.31,1.35-4.24.74-2.16,1.89-6.41.67-2.29,1.08-6.13.6-2.09.48-2.16.47-1.89.4-2.56.68-2.9.2-2.56.47-3.17.68-2.22.67-3.78.34-1.64.4-2.07.68-2,.2-2.09.81-2.09.67-2.36.34-1.75.94-2.16.54-1.89.68-1.88.6-1.69.27-1.75.2-1.49.27-1.48-.2-1.55.88.07h1.21l1.28-.47,1.42-1,1-.87,1.41-1.62,1.08-1.62,1.55-1.48a2.89,2.89,0,0,0,1.89-1.08l.61-1.82.13-1.62.14-1.48.13-2-.13-2.22v-2l.2-2.09.14-2.5.33-2.15.14-2,.06-1.75.21-2,.13-1.68L785,450v-1.89l.14-2.09.13-1.95.27-1.82.61-3.51.07-2,.13-1.28.2-2.23.58-1.68v-2.66l-.37,1.11L786,432.4l-.68,1.42-.67,1.55-1,1.48V438l-.68,1.55-.54,1.15-.6,1.41-1.15,1.76-1.14,1.95-1.35,2.29s-1.89,2.06-2.7,2.9l-1.68,2-1.89,2.3-.74,1-.81.87a15.62,15.62,0,0,1-1.49,1.82l-.67,1-.94,1-.61,1.14-.74.95-.68.74-.33,1,.33,1,.68.54v1.15s-.74.77-1.49,1.62l-.8,1.34-.81,1.89-.27,1.08-.07,1.42.13,1.41v1.15l.34,1.28.47,1.82.88,1.75.67,1.35.34,1.28.61,1.28-1,1.49-1.15,1.82-1.15,1.95-1.28,2.76-1.41,3.38-1,2.49-1.28,3-1.15,2.43-1.42,4-1.21,3.37-1.55,3.57L751,521.39l-.47,1.15-.61,1.42-.74,2.35-.34,2.23L748,530.9l-.6,3.23-1.62,5.8-.95,1.82-.54,1.82-.4,2.43a15.47,15.47,0,0,0-.94,3.51c-.58,2.83-.34,1.48-.34,1.48l-.54,1v1.28s-.17.57-.34,1.42l-.33,1v.87a5.17,5.17,0,0,1-.61,2v1.08l-.34,1.14v1.62L740,563.8v2l-.54,2.77v2.29l-.47.61-.47-1.49-.41-1.48V567l-.6-1.89V560.7l-.34-2.16-.27-3V552.4l-.34-2.76a14.35,14.35,0,0,0-.34-3.37v-1.55l-.67-1.82v-4.32l-.47-2.22v-2.23l-.41-2.69-.33-1.62v-1.28l-.47-1.75v-1.62l-.48-1.62v-1.28l-.33-1.28v-1.5l-.48-1.53v-2.84l-.47-1.61-.4-1.51v-1.53l-.61-1.89-.67-2.42-.54-2.5-.61-2.15-.54-2.09-.4-1.82-.68-2.77-.81-2.63-.74-2-1-1.42L725,488l.41-1.08.4-1.62.41-1.89.27-1.89s.4-2.26.6-3.44a7.59,7.59,0,0,0,.88-1.68l.34-2s-.34-1.59-.47-2.63l-1-2.16h0l-.17-.67v-2.77l-.47-1.14-.67-1v-4l-.34-1.08-.34-1.35a4.5,4.5,0,0,1-.81-1.68l-.54-1.08a10.82,10.82,0,0,0-1-1.55l-1.75-2.7-1.35-1.42-.88-1-1.41-1.48a20,20,0,0,1-2.09-2l-1.35-1.55-1.08-.94-1.28-1.08L710,439.82l-1-1.15-1-1-.94-1.35-.81-1.34-.27-1-.06-1.83-.34-1.14-.34,1-.2,1.82.07,1.21v1.69l.06,1.82.21,2.63.33,1.82.41,2.09.2,2.43.13,2.36.27,2.69-.27,1.75a6.92,6.92,0,0,1-1,.81,6.52,6.52,0,0,0-.81,1.22,7.2,7.2,0,0,0-.27,1.88l.41,1.69.88,1.62.94,1.21.54.95-.07,1.75.07,1.41.13,1.82.41,2.16.4,2.23.34,1.95.61,2.29.47,2,.54,1.68.87,1.82,1.28,1.82,1.69,2.16,1.55,1.42,1.42,1,1.34.81.14,1-.07,1.62.54,1.95-.2,2.09.07,1.75.06,1.62.34,2.63v1.48l.07,2.09.2,2.3-.07,2.83.54,4.45-.06,2.42v2l.4,2.36-.14,1.88.07,2.43.14,3.44.27,2.75.2,5.54.27,1.69.13,2,.07,2.09.2,2.16.27,2.9.07,2,.07,3.1.07,2.09.33,2.43v2.49l.2,2.43-.06,1.35.2,1.41.13,1.49.21,1.55.13,1.41.2,1.89.27,1.48v1.29l-1.21-.07-1,.27-.47-1.15-.54-1.68-.54-2.16-.88-2.7-.54-1.75-1.35-3.78-.74-2-.67-2.23-.88-2.22-.74-2.56-.88-2.16-.4-2-.74-1.69-.68-2-.47-1.82-.87-2.09-.61-1.76-.74-1.95-1.22-2.56-.81-2.23-.74-1.75-.6-1.35-.68-1.68-.67-1.42-.68-1.42-.54-1.55-.6-1.41-1.08-1.42-.41-.74.14-.88.13-.87.75-1.35.6-1.48.61-2.43.81-2.49.2-2.43-.34-1.75-.27-2.16-.47-2-.87-1.88-.48-1.62-.47-1.75-1.41-3-.95-1.75-1.14-1.55-1.49-1.75L694,488l-2.09-2-1.55-1.75-1.68-1.69-2.23-2.36-2.36-2.36-2.42-2.49L679.53,474l-2.09-1.69-2.29-3-1.76-2-1.68-2L670,462.54l-1.29-2.7-1.48-1.62.47,2,.61,1.82.4,1.82.68,1.75.54,1.89.33,1.75.61,4.05.18,2.07,1.17,2.24h0l.27,1.42.34,1.82.4,3.1h0V497.8l.54,1.62.54,1.88.47,1.55,1,1.89.47,1.35.81,1.48,1,1.69.94,1.82,1,1.48,1.41,1.48,1.35,1.56,1.28,1.14,1.89,1.15,1.21.81,2,.94,1.49.94,1.55.48,1.55.74,1.48.4,1.28.54.07,1.08v1.48l.27,1.89.2,1.82.27,2.23.27,1.82.41,2,.06,1.89.2,1.95.34,2.09.41,2,.36,2.3.38,2.49.6,2.56.41,3.64.47,2.63.47,2.36.47,3.57.48,2.84.67,3,.68,2.43.85,2.31L705.8,576l1.08,2.88H703.1l-2.34,1.25L699,581l-1.8,1.08-2.52,2.7-1.08,1.8v2.33l-1.44,1.8-.53,2v1.8l1.07,2.51v11l.09,22.47-.09,9.8.45,20.58.09,4.86.81,2.42,1.86.26,2.59-.1,3.34.1H706l4.45-.3h10.18Z" transform="translate(-667.19 -428.87)"/></svg>